# xmcd CD database file
#
# Track frame offsets:
#	150
#	11473
#	20552
#	30415
#	46519
#	58384
#	68943
#	79509
#	103345
#	112625
#	126085
#	139455
#
# Disc length: 2107 seconds
#
# Revision: 2
# Processed by: cddbd v1.4PL0 Copyright (c) Steve Scherf et al.
# Submitted via: CDex 1.40Beta9
#
DISCID=9808390c
DTITLE=Electric Frankenstein - Annie's Grave
DYEAR=1900
DGENRE=Punk Rock
TTITLE0=Already Dead
TTITLE1=Get Off
TTITLE2=Just Can't Kick
TTITLE3=Hate Machine
TTITLE4=Third Generation Nation
TTITLE5=Graveyard Dragrace
TTITLE6=Takin' You Down
TTITLE7=Fistful of Rock
TTITLE8=Annie's Grave
TTITLE9=My Father's Son
TTITLE10=Backs Against the Wall
TTITLE11=The Perfect Crime (live)
EXTD=ID3G: 121
EXTT0=
EXTT1=
EXTT2=
EXTT3=
EXTT4=
EXTT5=
EXTT6=
EXTT7=
EXTT8=
EXTT9=
EXTT10=
EXTT11=
PLAYORDER=
